<svg width="24" height="25" viewBox="0 0 24 25" fill="none" xmlns="http://www.w3.org/2000/svg">
<g clip-path="url(#clip0_5_27)">
<path d="M21.7986 12.2222C21.7986 17.5724 17.4614 21.9097 12.1111 21.9097C6.76081 21.9097 2.42358 17.5724 2.42358 12.2222C2.42358 6.8719 6.76081 2.53467 12.1111 2.53467C17.4614 2.53467 21.7986 6.8719 21.7986 12.2222ZM10.9905 17.3516L18.178 10.1641C18.4221 9.92006 18.4221 9.52432 18.178 9.28025L17.2942 8.39639C17.0501 8.15229 16.6544 8.15229 16.4103 8.39639L10.5486 14.258L7.8119 11.5213C7.56784 11.2773 7.1721 11.2773 6.928 11.5213L6.04413 12.4052C5.80007 12.6493 5.80007 13.045 6.04413 13.2891L10.1066 17.3516C10.3507 17.5957 10.7464 17.5957 10.9905 17.3516Z" fill="black"/>
</g>
<defs>
<clipPath id="clip0_5_27">
<rect width="20" height="20" fill="white" transform="translate(2.11108 2.22217)"/>
</clipPath>
</defs>
</svg>
